<?xml version="1.0" standalone="no"?>
<!DOCTYPE svg PUBLIC "-//W3C//DTD SVG 20010904//EN"
 "http://www.w3.org/TR/2001/REC-SVG-20010904/DTD/svg10.dtd">
<svg version="1.0" xmlns="http://www.w3.org/2000/svg"
 width="450.000000pt" height="450.000000pt" viewBox="0 0 450.000000 450.000000"
 preserveAspectRatio="xMidYMid meet">
<metadata>
Created by potrace 1.11, written by Peter Selinger 2001-2013
</metadata>
<g transform="translate(0.000000,450.000000) scale(0.100000,-0.100000)"
fill="#000000" stroke="none">
<path d="M131 2642 c-48 -16 -91 -58 -107 -104 -11 -32 -11 -43 1 -143 6 -56
13 -124 21 -205 3 -30 7 -68 9 -85 2 -16 7 -57 10 -90 9 -83 30 -115 93 -146
52 -25 54 -26 300 -25 229 1 250 3 287 22 22 11 50 35 62 52 20 31 26 56 38
182 3 30 7 71 10 90 2 19 7 60 10 90 3 30 8 82 11 115 15 142 0 189 -75 233
l-46 27 -291 0 c-221 1 -302 -3 -333 -13z"/>
<path d="M1099 2649 c-89 -23 -126 -70 -134 -169 -3 -34 -15 -137 -20 -180 -2
-19 -7 -62 -10 -95 -3 -33 -8 -85 -11 -115 -9 -81 -9 -82 -1 -121 9 -43 61
-96 111 -113 27 -9 117 -12 329 -12 l293 2 45 26 c85 50 95 104 64 343 -2 17
-7 59 -10 95 -3 36 -7 79 -10 95 -2 17 -7 57 -11 90 -8 74 -33 111 -93 139
-42 19 -65 21 -282 21 -129 1 -247 -2 -260 -6z"/>
<path d="M1925 2639 c-92 -35 -119 -98 -101 -239 6 -44 8 -62 21 -205 4 -38 8
-81 10 -95 2 -14 7 -52 10 -85 9 -77 30 -114 86 -145 44 -25 45 -25 299 -25
228 0 259 2 293 19 53 26 84 71 91 131 9 77 15 135 21 195 6 69 14 140 22 205
11 94 11 106 0 140 -13 43 -43 77 -87 100 -32 17 -64 19 -328 20 -251 1 -298
-1 -337 -16z"/>
<path d="M2903 2649 c-47 -9 -95 -41 -114 -74 -10 -17 -20 -59 -24 -95 -4 -36
-8 -72 -10 -80 -1 -8 -6 -51 -10 -95 -8 -84 -8 -89 -20 -200 -11 -102 -9 -131
16 -174 21 -38 90 -87 103 -74 3 3 6 2 6 -4 0 -6 109 -9 303 -8 320 1 328 2
382 52 27 25 51 82 49 118 -1 34 -13 155 -19 200 -2 17 -7 59 -10 95 -3 36 -8
81 -10 100 -3 19 -7 60 -10 90 -4 39 -14 65 -33 89 -47 58 -79 64 -337 66
-127 0 -244 -2 -262 -6z"/>
<path d="M3720 2638 c-101 -43 -117 -106 -85 -343 2 -16 7 -61 10 -100 4 -38
8 -81 10 -95 2 -14 7 -52 10 -85 9 -75 35 -119 89 -147 39 -21 54 -22 291 -23
247 0 251 0 300 25 73 37 85 63 100 225 3 33 7 76 10 95 2 19 7 62 10 95 3 33
8 85 12 115 3 30 7 66 8 80 4 71 -55 151 -123 166 -20 4 -164 8 -318 9 -250 1
-287 -1 -324 -17z"/>
</g>
</svg>
