<?xml version="1.0" standalone="no"?>
<!DOCTYPE svg PUBLIC "-//W3C//DTD SVG 20010904//EN"
 "http://www.w3.org/TR/2001/REC-SVG-20010904/DTD/svg10.dtd">
<svg version="1.0" xmlns="http://www.w3.org/2000/svg"
 width="980.000000pt" height="980.000000pt" viewBox="0 0 980.000000 980.000000"
 preserveAspectRatio="xMidYMid meet">
<metadata>
Created by potrace 1.11, written by Peter Selinger 2001-2013
</metadata>
<g transform="translate(0.000000,980.000000) scale(0.100000,-0.100000)"
fill="#000000" stroke="none">
<path d="M1741 9714 c-290 -78 -637 -360 -997 -810 -353 -442 -617 -961 -715
-1404 -30 -139 -38 -426 -14 -575 85 -553 396 -1230 936 -2040 681 -1020 1548
-1994 2520 -2829 1038 -893 2106 -1567 2922 -1845 458 -156 802 -181 1178 -86
829 211 1890 1025 2104 1615 33 90 44 225 25 313 -15 75 -85 212 -152 302
-309 410 -1264 1119 -1993 1480 -336 166 -470 210 -645 210 -135 0 -213 -22
-310 -87 -174 -116 -273 -264 -467 -703 -46 -104 -102 -222 -125 -262 l-40
-71 -54 18 c-386 133 -1258 756 -1764 1260 -469 466 -1053 1260 -1229 1668
-60 138 -61 132 12 174 66 38 82 45 312 145 382 167 559 285 664 447 72 111
86 161 86 316 0 133 -1 137 -44 263 -186 546 -888 1612 -1401 2128 -220 220
-383 334 -537 374 -71 19 -201 18 -272 -1z m252 -652 c269 -218 747 -837 1087
-1407 117 -197 278 -516 315 -625 l25 -75 -39 -35 c-48 -44 -207 -127 -411
-215 -336 -145 -493 -244 -588 -372 -67 -89 -93 -157 -99 -264 -7 -111 14
-219 73 -369 174 -442 704 -1195 1262 -1795 318 -340 873 -796 1367 -1120 454
-300 784 -445 1005 -445 131 1 220 33 324 117 115 93 201 229 331 523 140 316
199 425 254 475 22 19 23 19 109 -10 48 -16 170 -71 272 -121 676 -336 1599
-1020 1818 -1347 l26 -38 -26 -52 c-101 -206 -452 -542 -828 -792 -325 -217
-637 -361 -911 -422 -134 -29 -350 -24 -502 11 -418 97 -967 355 -1578 744
-946 601 -1987 1503 -2798 2427 -984 1121 -1702 2294 -1872 3060 -29 130 -36
317 -15 430 41 222 147 486 297 742 260 442 669 899 925 1034 66 34 59 36 177
-59z"/>
<path d="M5455 9383 c-197 -8 -553 -48 -646 -73 -53 -15 -114 -71 -135 -125
-35 -92 1 -208 79 -256 68 -41 98 -43 294 -15 471 67 921 56 1378 -35 1275
-253 2324 -1108 2768 -2254 77 -199 145 -434 177 -614 26 -144 97 -211 225
-211 123 0 205 84 205 211 0 141 -115 558 -233 845 -442 1076 -1378 1925
-2547 2311 -487 161 -1043 237 -1565 216z"/>
<path d="M5240 7984 c-239 -27 -314 -46 -358 -87 -88 -82 -84 -243 7 -320 62
-51 128 -57 331 -26 103 15 434 15 550 0 532 -71 992 -293 1350 -651 281 -281
469 -622 555 -1006 29 -131 40 -157 82 -196 99 -95 272 -67 333 53 34 65 35
112 5 244 -98 439 -314 843 -627 1170 -408 428 -955 707 -1570 801 -98 15
-570 28 -658 18z"/>
<path d="M5185 6603 c-108 -8 -223 -27 -250 -40 -159 -80 -159 -304 0 -385 36
-19 48 -20 155 -12 328 25 529 -8 760 -127 118 -61 206 -126 297 -222 132
-139 222 -302 266 -485 30 -121 49 -157 104 -195 31 -22 55 -30 104 -34 57 -4
70 -2 119 24 44 23 60 39 82 82 36 68 36 127 3 254 -144 556 -599 978 -1193
1107 -136 30 -320 44 -447 33z"/>
</g>
</svg>
