<?xml version="1.0" standalone="no"?>
<!DOCTYPE svg PUBLIC "-//W3C//DTD SVG 20010904//EN"
 "http://www.w3.org/TR/2001/REC-SVG-20010904/DTD/svg10.dtd">
<svg version="1.0" xmlns="http://www.w3.org/2000/svg"
 width="200.000000pt" height="200.000000pt" viewBox="0 0 200.000000 200.000000"
 preserveAspectRatio="xMidYMid meet">
<metadata>
Created by potrace 1.11, written by Peter Selinger 2001-2013
</metadata>
<g transform="translate(0.000000,200.000000) scale(0.100000,-0.100000)"
fill="#000000" stroke="none">
<path d="M363 1705 c-17 -7 -43 -30 -57 -52 l-26 -38 0 -454 c1 -492 0 -486
56 -530 15 -12 44 -24 64 -27 35 -6 38 -9 44 -46 9 -55 59 -105 114 -114 37
-6 40 -9 46 -44 3 -20 15 -49 27 -64 44 -56 38 -55 531 -56 l454 0 35 23 c70
46 69 41 69 535 0 481 -1 488 -55 530 -16 12 -45 25 -67 28 -36 6 -39 10 -38
49 0 3 -6 18 -15 34 -20 40 -61 70 -105 77 -34 6 -38 10 -44 44 -7 47 -40 88
-82 106 -49 20 -904 20 -951 -1z"/>
</g>
</svg>
